<?xml version="1.0" encoding="utf-8"?>
<!-- Generator: Adobe Illustrator 22.1.0, SVG Export Plug-In . SVG Version: 6.00 Build 0)  -->
<svg version="1.1" id="Capa_1" xmlns="http://www.w3.org/2000/svg" xmlns:xlink="http://www.w3.org/1999/xlink" x="0px" y="0px"
	 viewBox="0 0 930.5 772.6" style="enable-background:new 0 0 930.5 772.6;" xml:space="preserve">
<style type="text/css">
	.st0{opacity:0.1;}
</style>
<g class="st0">
	<path d="M162.1,550.1L203,669.7l153.4-153.4l-3.8,216.9L467,679.6l112.5,57.7l5.1-286.1c38.5-24.1,68.7-59.4,86.9-102.1
		c23.4-55.1,23.9-115.9,1.5-171.4S608,78.8,552.8,55.3S437,31.5,381.5,53.9s-98.9,65-122.2,120.1c-17.9,42.2-22.4,87.9-13.4,131.9
		L42.4,509.2L162.1,550.1z M533.5,101.1c42.9,18.2,76.1,52,93.6,95.2s17,90.6-1.2,133.5c-9.5,22.3-23.1,41.9-40.1,58.1
		c-14.5,13.8-31.4,25.1-50.2,33.4c-1.7,0.7-3.2,1.4-4.9,2c-29.7,12-61.2,15.5-92,10.7c-10.5-1.6-20.9-4.3-31.1-7.9
		c-3.5-1.3-7-2.6-10.4-4c-3.9-1.7-7.7-3.4-11.4-5.3c-9.7-5-18.9-10.8-27.4-17.3c-24.2-18.7-43-43.5-54.8-72.6
		c-0.8-2.1-1.6-4.2-2.5-6.4c-7-19.4-10.4-39.6-10.4-59.8c0.1-22.9,4.7-45.7,13.9-67.3c18.2-42.9,52-76.1,95.2-93.6
		C443.2,82.5,490.7,82.9,533.5,101.1z M531.4,656.8L468,624.3l-64.5,30.2l3.1-176.8c42,11.5,86.2,10.5,127.9-3.2L531.4,656.8z
		 M263.4,358.4c19,39.7,48.7,72.3,86,94.8L224.2,578.4l-23-67.4l-67.4-23.1L263.4,358.4z"/>
	<path d="M462.8,678l114.3,54L574,515l152.9,154l41.3-119.5L888,509.1L686.5,306c9.6-44.5,5.3-90.7-12.7-133.5
		C650.6,117.4,607.4,74.6,552,52c-55.4-22.7-116.3-22.3-171.5,0.9s-98,66.4-120.6,121.8s-22.3,116.3,0.9,171.4
		c17.8,42.3,47.4,77.3,85.2,101.6l4,287.5L462.8,678z M399.7,98.6c43-18.1,90.4-18.3,133.5-0.7c43.2,17.6,76.8,50.9,94.9,93.9
		c9.4,22.3,14,45.8,13.7,69.3c-0.2,20-3.9,40-11.1,59.3c-0.6,1.7-1.2,3.3-2,4.9c-12.1,29.6-31.5,54.7-56.4,73.4
		c-8.5,6.4-17.7,12-27.4,16.8c-3.3,1.6-6.7,3.2-10.1,4.7c-3.9,1.6-7.8,3.1-11.7,4.5c-10.3,3.5-20.9,6-31.5,7.5
		c-30.2,4.3-61.2,0.6-90.2-11.3c-2.1-0.9-4.2-1.8-6.3-2.7c-18.8-8.6-35.7-20.1-50.1-34.3c-16.3-16-29.5-35.2-38.6-56.9
		c-18.1-43-18.3-90.4-0.7-133.5C323.4,150.4,356.8,116.7,399.7,98.6z M796.7,487.5l-67.5,22.8L706,577.6L581.4,452.2
		c37.5-22.1,67.6-54.5,86.9-94L796.7,487.5z M395.9,471.7c41.7,14.1,85.8,15.5,127.9,4.5l2.5,177L462,622.7L398.5,655L395.9,471.7z"
		/>
</g>
</svg>
