<?xml version="1.0" encoding="utf-8"?>
<!-- Generator: Adobe Illustrator 22.1.0, SVG Export Plug-In . SVG Version: 6.00 Build 0)  -->
<svg version="1.1" id="Capa_1" xmlns="http://www.w3.org/2000/svg" xmlns:xlink="http://www.w3.org/1999/xlink" x="0px" y="0px"
	 viewBox="0 0 800 962.7" style="enable-background:new 0 0 800 962.7;" xml:space="preserve">
<style type="text/css">
	.st0{opacity:0.1;enable-background:new    ;}
</style>
<path class="st0" d="M193.2,802.1l105.3,117.4l101.5-251l101.4,251.1l105.3-117.4l157.4,11.4L630.5,482.4
	c32.5-46.5,50-101.8,50-159.7c0-74.7-29-144.8-81.8-197.7S475.7,43.1,401,43.1s-144.8,29-197.7,81.8s-81.8,123-81.8,197.7
	c0,57.3,17.1,111.9,48.9,158L35.8,813.4L193.2,802.1z M400.9,105c58.2,0,112.8,22.7,154,63.7c41.2,41.2,63.7,95.8,63.7,154
	c0,30.2-6.1,59.5-17.8,86.3c-9.9,22.9-23.9,44.2-41.4,62.8c-1.5,1.6-3,3.2-4.6,4.7c-28.2,28.2-62.7,47.7-100.4,57.2
	c-12.8,3.3-26.1,5.3-39.6,6.1c-4.6,0.3-9.3,0.5-13.9,0.5c-5.3,0-10.5-0.2-15.7-0.5c-13.6-1-26.9-3.2-39.9-6.6
	c-36.9-9.7-70.6-29-98.3-56.6c-2-2-3.9-4.1-5.9-6.1c-17.5-18.9-31.3-40.4-41.1-63.6c-11-26.3-16.8-54.8-16.8-84.1
	c0-58.2,22.7-112.8,63.7-154C288.1,127.7,342.8,105,400.9,105z M669.6,744.5l-88.7-6.4l-59.4,66.2l-82.7-204.7
	c53.9-7.3,104.2-30,145.4-66.1L669.6,744.5z M216.1,532.5c41.2,36.3,91.2,59.4,145,67l-82.8,204.8L219,738.1l-88.7,6.4L216.1,532.5z
	"/>
</svg>
