<svg height="512pt" viewBox="0 -21 512.002 512" width="512pt" xmlns="http://www.w3.org/2000/svg"><path d="m80.960938 88.234375h-38.621094c-23.347656 0-42.339844-18.992187-42.339844-42.332031v-3.570313c0-23.339843 18.992188-42.332031 42.339844-42.332031h292.988281c5.523437 0 10 4.476562 10 10s-4.476563 10-10 10h-292.988281c-12.316406 0-22.339844 10.019531-22.339844 22.332031v3.566407c0 12.316406 10.023438 22.332031 22.339844 22.332031h38.621094c5.523437 0 10 4.480469 10 10 0 5.527343-4.476563 10.003906-10 10.003906zm0 0"/><path d="m122.730469 88.238281c-.660157 0-1.308594-.070312-1.960938-.203125-.640625-.128906-1.269531-.316406-1.871093-.566406-.597657-.25-1.179688-.5625-1.726563-.921875-.542969-.359375-1.050781-.78125-1.523437-1.238281-.457032-.460938-.878907-.980469-1.238282-1.523438-.359375-.546875-.671875-1.128906-.921875-1.726562-.25-.601563-.4375-1.230469-.566406-1.871094-.132813-.640625-.191406-1.300781-.191406-1.949219 0-.660156.058593-1.3125.191406-1.960937.128906-.640625.316406-1.269532.566406-1.871094.25-.597656.5625-1.179688.921875-1.730469.359375-.539062.78125-1.058593 1.238282-1.519531.472656-.460938.980468-.871094 1.523437-1.238281.546875-.359375 1.128906-.671875 1.726563-.921875.601562-.25 1.230468-.4375 1.871093-.570313 3.25-.648437 6.699219.410157 9.03125 2.730469.460938.472656.878907.980469 1.238281 1.519531.359376.550781.671876 1.132813.921876 1.730469.25.601562.4375 1.230469.570312 1.871094.128906.648437.199219 1.300781.199219 1.960937 0 .648438-.070313 1.308594-.199219 1.949219-.132812.640625-.320312 1.269531-.570312 1.871094-.25.597656-.5625 1.179687-.921876 1.726562-.359374.542969-.777343 1.0625-1.238281 1.523438-1.859375 1.859375-4.441406 2.929687-7.070312 2.929687zm0 0"/><path d="m218.648438 226.75v-9.625c0-22.625 18.34375-40.964844 40.972656-40.964844 22.632812 0 40.976562 18.339844 40.976562 40.964844v9.625" fill="#50b4ff"/><path d="m259.621094 226.75h-125.355469c-64.628906 0-117.019531 52.378906-117.019531 116.992188 0 64.613281 52.390625 116.992187 117.019531 116.992187 44.582031 0 83.335937-24.925781 103.09375-61.59375h44.527344c19.757812 36.667969 58.511719 61.59375 103.09375 61.59375 64.628906 0 117.019531-52.378906 117.019531-116.992187 0-64.613282-52.390625-116.992188-117.019531-116.992188h-84.382813" fill="#52607e"/><path d="m384.976562 216.75h-74.382812c-.175781-24.363281-17.539062-44.714844-40.542969-49.515625 2.859375-8.332031 10.773438-14.335937 20.0625-14.335937h140.398438c23.347656 0 42.339843-18.992188 42.339843-42.332032 0-23.34375-18.996093-42.332031-42.339843-42.332031h-269.003907c-5.523437 0-10 4.476563-10 10s4.476563 10 10 10h269.003907c12.316406 0 22.339843 10.015625 22.339843 22.332031 0 12.3125-10.023437 22.332032-22.339843 22.332032h-140.398438c-20.359375 0-37.316406 14.839843-40.617187 34.273437-23.15625 4.683594-40.667969 25.109375-40.84375 49.578125h-74.382813c-70.042969 0-127.023437 56.96875-127.023437 126.992188 0 70.023437 56.980468 126.992187 127.023437 126.992187 44.78125 0 85.964844-23.453125 108.898438-61.59375h32.910156c22.9375 38.140625 64.121094 61.59375 108.902344 61.59375 70.039062 0 127.023437-56.96875 127.023437-126.992187-.003906-70.023438-56.984375-126.992188-127.027344-126.992188zm0 233.984375c-39.4375 0-75.566406-21.585937-94.285156-56.339844-1.746094-3.238281-5.125-5.253906-8.804687-5.253906h-44.53125c-3.675781 0-7.058594 2.015625-8.800781 5.253906-18.722657 34.75-54.851563 56.339844-94.289063 56.339844-59.011719 0-107.023437-47.996094-107.023437-106.992187 0-58.996094 48.011718-106.992188 107.023437-106.992188h125.355469c5.523437 0 10-4.476562 10-10s-4.476563-10-10-10h-30.972656c.203124-16.902344 14.015624-30.589844 30.972656-30.589844 17.078125 0 30.972656 13.890625 30.972656 30.964844v9.625c0 5.523438 4.476562 10 10 10h84.382812c59.011719 0 107.023438 47.996094 107.023438 106.992188 0 58.996093-48.011719 106.992187-107.023438 106.992187zm0 0"/><path d="m182.695312 321.871094h-31.425781v-31.417969h-43.40625v31.417969h-31.425781v43.394531h31.425781v31.421875h43.40625v-31.421875h31.425781zm0 0" fill="#fcfcfc"/><path d="m151.269531 406.6875h-43.40625c-5.523437 0-10-4.476562-10-10v-21.421875h-21.425781c-5.523438 0-10-4.476563-10-10v-43.394531c0-5.519532 4.476562-10 10-10h21.425781v-21.417969c0-5.523437 4.476563-10 10-10h43.40625c5.519531 0 10 4.476563 10 10v21.417969h21.425781c5.523438 0 10 4.480468 10 10v43.394531c0 5.523437-4.476562 10-10 10h-21.425781v21.421875c0 5.523438-4.480469 10-10 10zm-33.40625-20h23.40625v-21.421875c0-5.523437 4.476563-10 10-10h21.425781v-23.394531h-21.425781c-5.523437 0-10-4.476563-10-10v-21.417969h-23.40625v21.417969c0 5.523437-4.476562 10-10 10h-21.425781v23.394531h21.425781c5.523438 0 10 4.476563 10 10zm0 0"/><path d="m445.863281 339.8125c-11.074219 11.074219-29.027343 11.074219-40.101562 0-11.074219-11.070312-11.074219-29.019531 0-40.089844 11.074219-11.070312 29.027343-11.070312 40.101562 0 11.074219 11.070313 11.074219 29.019532 0 40.089844zm0 0" fill="#f3756a"/><path d="m425.8125 358.097656c-9.820312 0-19.644531-3.738281-27.121094-11.210937-7.246094-7.242188-11.234375-16.875-11.234375-27.117188 0-10.246093 3.988281-19.875 11.234375-27.117187 14.957032-14.953125 39.289063-14.953125 54.242188 0 7.246094 7.242187 11.234375 16.871094 11.234375 27.117187 0 10.242188-3.988281 19.875-11.234375 27.117188-7.476563 7.476562-17.296875 11.210937-27.121094 11.210937zm0-56.667968c-4.699219 0-9.402344 1.789062-12.980469 5.367187-3.464843 3.464844-5.375 8.070313-5.375 12.972656 0 4.902344 1.910157 9.507813 5.375 12.972657 7.15625 7.15625 18.804688 7.15625 25.960938 0 3.46875-3.464844 5.375-8.070313 5.375-12.972657 0-4.902343-1.90625-9.507812-5.375-12.972656-3.578125-3.578125-8.277344-5.367187-12.980469-5.367187zm0 0"/><path d="m384.445312 401.21875c-11.074218 11.070312-29.027343 11.070312-40.101562 0-11.074219-11.074219-11.074219-29.023438 0-40.09375s29.027344-11.070312 40.101562 0c11.074219 11.070312 11.074219 29.023438 0 40.09375zm0 0" fill="#fdbf6c"/><path d="m364.394531 419.503906c-9.820312 0-19.644531-3.738281-27.121093-11.214844-7.246094-7.242187-11.234376-16.875-11.234376-27.117187s3.988282-19.875 11.234376-27.117187c14.953124-14.953126 39.289062-14.953126 54.242187 0 7.246094 7.242187 11.234375 16.875 11.234375 27.117187s-3.988281 19.875-11.234375 27.117187c-7.476563 7.476563-17.300781 11.214844-27.121094 11.214844zm0-56.671875c-4.699219 0-9.402343 1.789063-12.980469 5.367188-3.464843 3.464843-5.375 8.070312-5.375 12.972656s1.910157 9.507813 5.375 12.972656c7.15625 7.15625 18.804688 7.15625 25.960938 0 3.46875-3.464843 5.375-8.070312 5.375-12.972656 0-4.898437-1.90625-9.507813-5.375-12.972656-3.578125-3.578125-8.28125-5.367188-12.980469-5.367188zm0 0"/><path d="m204.933594 261.621094h109.378906v36.785156h-109.378906zm0 0" fill="#a5e6ff"/><path d="m314.3125 308.40625h-109.378906c-5.523438 0-10-4.476562-10-10v-36.785156c0-5.519532 4.476562-10 10-10h109.378906c5.523438 0 10 4.480468 10 10v36.785156c0 5.523438-4.476562 10-10 10zm-99.378906-20h89.378906v-16.785156h-89.378906zm0 0"/></svg>