<svg xmlns="http://www.w3.org/2000/svg" viewBox="0 0 221.73 110.43"><defs><style>.cls-1{font-size:55px;fill:#f2f2f2;font-family:Quicksand-Medium, Quicksand;}.cls-2{font-family:Quicksand-Bold, Quicksand;font-weight:700;}.cls-3{letter-spacing:0.01em;}.cls-4{fill:#965a50;}.cls-5{fill:#d4af91;}.cls-6{fill:#ebc9a0;}.cls-7{fill:#af6e5a;}.cls-8{fill:#faebc8;}.cls-9{fill:#f5dcb4;}.cls-10{fill:#4b3f4e;}.cls-11{fill:#e6646e;}</style></defs><title>logo1</title><g id="Layer_2" data-name="Layer 2"><g id="Layer_1-2" data-name="Layer 1"><text class="cls-1" transform="translate(111.63 46.75)">See<tspan class="cls-2" x="94.71" y="0"> </tspan><tspan class="cls-3" x="0" y="49">D</tspan><tspan x="39.87" y="49">o</tspan></text><circle class="cls-4" cx="12.64" cy="47.03" r="11.32"/><circle class="cls-5" cx="12.64" cy="47.03" r="7.07"/><circle class="cls-4" cx="77.72" cy="47.03" r="11.32"/><circle class="cls-6" cx="77.72" cy="47.03" r="7.07"/><path class="cls-7" d="M77.15,53.73a16.18,16.18,0,0,1-2.26-8.12h0A29.71,29.71,0,0,0,56.5,18.15V13.08l-7.07,2.83L48,10.25a23.63,23.63,0,0,0-9.31,6.39,29.7,29.7,0,0,0-23.23,29,16.27,16.27,0,0,1-2.25,8.12,24.58,24.58,0,0,0-3.41,12.4c0,16,15.84,29,35.37,29s35.37-13,35.37-29A24.57,24.57,0,0,0,77.15,53.73Z"/><path class="cls-4" d="M25.37,71.2a32.38,32.38,0,0,1,3.41-14.47A21.39,21.39,0,0,0,31,47.27c0-14.4,7.54-26.72,18.25-32L48,10.25a23.63,23.63,0,0,0-9.31,6.39,29.7,29.7,0,0,0-23.23,29,16.27,16.27,0,0,1-2.25,8.12,24.58,24.58,0,0,0-3.41,12.4C9.81,79.06,20.13,90,34.38,93.75A32.91,32.91,0,0,1,25.37,71.2Z"/><path class="cls-8" d="M45.18,89.47c11.72,0,21.22-7.6,21.22-17A13.73,13.73,0,0,0,65.23,67a7.19,7.19,0,0,1,1-7.52A12.72,12.72,0,0,0,47.94,41.86a4.11,4.11,0,0,1-5.51,0A12.73,12.73,0,0,0,24.09,59.43a7.17,7.17,0,0,1,1,7.52A13.73,13.73,0,0,0,24,72.49C24,81.87,33.46,89.47,45.18,89.47Z"/><path class="cls-9" d="M24,72.49a14.46,14.46,0,0,0,3,8.68,32.26,32.26,0,0,1,1.82-24.44A21.39,21.39,0,0,0,31,47.27,40.07,40.07,0,0,1,32,38.69h-.15a12.73,12.73,0,0,0-7.73,20.73,7.17,7.17,0,0,1,1,7.52A13.73,13.73,0,0,0,24,72.49Z"/><path class="cls-10" d="M31,71.08c0,7,6.34,12.73,14.15,12.73s14.15-5.7,14.15-12.73Z"/><path class="cls-11" d="M37,81.48a15.42,15.42,0,0,0,16.3,0,8.47,8.47,0,0,0-16.3,0Z"/><path class="cls-7" d="M12.64,54C8.16,64.12,3.7,80.69,1.32,96.55h17A181.82,181.82,0,0,1,26.2,63Z"/><path class="cls-4" d="M8,96.55A215.34,215.34,0,0,1,18.82,58.07L12.64,54C8.16,64.12,3.7,80.69,1.32,96.55Z"/><path class="cls-9" d="M14.9,34.38a4.35,4.35,0,0,1,3.4,4.32v5.66l4.55-4.55A11.54,11.54,0,0,1,37.73,38.4,11.36,11.36,0,0,1,39.1,55.58l-6.35,6.34a10.87,10.87,0,0,1-15.32,0l-1.82-1.81a19.85,19.85,0,0,1-5.8-14V38.54A4.25,4.25,0,0,1,14.9,34.38Z"/><path class="cls-6" d="M37.13,38a11.57,11.57,0,0,0-14.28,1.8L18.3,44.36V38.7a4.35,4.35,0,0,0-3.4-4.32,4.25,4.25,0,0,0-5.09,4.16V46.1a19.85,19.85,0,0,0,5.8,14l1.82,1.81C15.87,56.16,23.94,38.23,37.13,38Z"/><path class="cls-7" d="M77.77,54c4.47,10.13,8.93,26.7,11.31,42.56h-17A181.82,181.82,0,0,0,64.21,63Z"/><path class="cls-9" d="M75.51,34.38a4.34,4.34,0,0,0-3.4,4.32v5.66l-4.55-4.55A11.54,11.54,0,0,0,52.68,38.4a11.35,11.35,0,0,0-1.37,17.18l6.35,6.34a10.87,10.87,0,0,0,15.32,0l1.81-1.81a19.81,19.81,0,0,0,5.8-14V38.54A4.24,4.24,0,0,0,75.51,34.38Z"/><path d="M39,63.78l2.83,1.42a1.38,1.38,0,0,0,.59.14,1.33,1.33,0,0,0,.6-2.51l-2.84-1.42A1.32,1.32,0,0,0,39,63.78Z"/><path d="M48,65.34a1.42,1.42,0,0,0,.59-.14l2.83-1.42a1.33,1.33,0,1,0-1.19-2.37l-2.83,1.42a1.33,1.33,0,0,0,.6,2.51Z"/><path d="M29.72,71.09c0,7.75,7,14.06,15.48,14.06s15.48-6.31,15.48-14.06a1.33,1.33,0,0,0-1.32-1.33H31.05A1.34,1.34,0,0,0,29.72,71.09ZM45.2,79.67A1.33,1.33,0,0,0,43.88,81v1.44a13.72,13.72,0,0,1-5.22-1.54,7.17,7.17,0,0,1,13.09,0,13.72,13.72,0,0,1-5.22,1.54V81A1.33,1.33,0,0,0,45.2,79.67ZM58,72.41a11,11,0,0,1-4,7,9.81,9.81,0,0,0-17.53,0,11,11,0,0,1-4-7Z"/><path d="M80.28,59.42a12.65,12.65,0,0,0,0-24.78,5.48,5.48,0,0,0-.44-.4,5.58,5.58,0,0,0-4.64-1.17,5.5,5.5,0,0,0-1.43.49,31.16,31.16,0,0,0-16-16.3v-4.2a1.34,1.34,0,0,0-.58-1.1A1.29,1.29,0,0,0,56,11.83l-5.67,2.26-1-4.19A1.32,1.32,0,0,0,47.62,9,24.26,24.26,0,0,0,38,15.42,31,31,0,0,0,16.59,33.57a5.46,5.46,0,0,0-1.44-.5,5.55,5.55,0,0,0-4.63,1.17,4.18,4.18,0,0,0-.44.4,12.65,12.65,0,0,0,0,24.78A178.38,178.38,0,0,0,0,96.37a1.34,1.34,0,0,0,1.12,1.51h.2a1.31,1.31,0,0,0,1.3-1.13A176,176,0,0,1,13.05,59.21a21.79,21.79,0,0,0,1.64,1.84l1.81,1.81a12.1,12.1,0,0,0,7.17,3.47A175,175,0,0,0,17,96.38a1.33,1.33,0,0,0,1.12,1.5h.19a1.31,1.31,0,0,0,1.31-1.13c.4-2.81.83-5.44,1.27-7.88a41.15,41.15,0,0,0,24.31,7.6,41.2,41.2,0,0,0,24.32-7.6c.44,2.45.87,5.08,1.27,7.88a1.31,1.31,0,0,0,1.31,1.13h.18a1.33,1.33,0,0,0,1.13-1.5,177.6,177.6,0,0,0-6.67-30.06,12,12,0,0,0,6.92-3.22,1.33,1.33,0,1,0-1.82-1.93A9.57,9.57,0,0,1,58.58,61l-6.35-6.35a10,10,0,0,1,1.21-15.18,10.25,10.25,0,0,1,13.17,1.28l4.55,4.55a1.32,1.32,0,0,0,2.26-.94V38.69a3,3,0,0,1,2.33-3,2.94,2.94,0,0,1,3.52,2.86V46.1A18.57,18.57,0,0,1,75.5,57.28a1.32,1.32,0,0,0,1.83,1.87A175.48,175.48,0,0,1,87.77,96.76a1.33,1.33,0,0,0,1.31,1.13h.2a1.33,1.33,0,0,0,1.11-1.51A177.14,177.14,0,0,0,80.28,59.42ZM2.65,47a10.05,10.05,0,0,1,5.88-9.12,4.4,4.4,0,0,0,0,.62V46.1a20.92,20.92,0,0,0,2.77,10.46c0,.12-.1.23-.14.35A10,10,0,0,1,2.65,47ZM16.56,59.17A18.33,18.33,0,0,1,11.14,46.1V38.53a2.93,2.93,0,0,1,1.06-2.25,2.89,2.89,0,0,1,1.86-.67A2.92,2.92,0,0,1,17,38.69v5.66a1.33,1.33,0,0,0,2.27.94l4.54-4.55A10.27,10.27,0,0,1,37,39.46a10,10,0,0,1,1.21,15.18L31.83,61a9.56,9.56,0,0,1-13.46,0ZM45.2,93.83A38.16,38.16,0,0,1,21.44,86c.66-3.41,1.33-6.38,1.93-8.85C25.9,85,34.73,90.81,45.2,90.81S64.51,85,67,77.12c.63,2.55,1.29,5.5,1.94,8.84A38.17,38.17,0,0,1,45.2,93.83Zm5.16-37.32,6.34,6.35a12,12,0,0,0,6.93,3.43,8,8,0,0,0,.42,1.19,12.6,12.6,0,0,1,1.06,5c0,8.64-8.93,15.67-19.91,15.67s-19.9-7-19.9-15.67a12.43,12.43,0,0,1,1.06-5,8.24,8.24,0,0,0,.41-1.18,12.06,12.06,0,0,0,6.93-3.44l6.35-6.35a12.67,12.67,0,0,0,3.13-12.66,5.65,5.65,0,0,0,2,.38,5.57,5.57,0,0,0,2-.38,13.17,13.17,0,0,0-.52,2.73A12.64,12.64,0,0,0,50.36,56.51ZM70.77,38.69v2.47l-2.28-2.29a12.91,12.91,0,0,0-16.61-1.54,12.18,12.18,0,0,0-1.54,1.32l-.08,0a13.6,13.6,0,0,0-3.19,2.19,2.8,2.8,0,0,1-3.73,0,14.33,14.33,0,0,0-3.28-2.24,12.64,12.64,0,0,0-18.14.23l-2.29,2.29V38.69a5.94,5.94,0,0,0-.95-3.23A28.46,28.46,0,0,1,39,17.91a1.37,1.37,0,0,0,.67-.38A23.44,23.44,0,0,1,47.11,12l1.06,4.21a1.32,1.32,0,0,0,1.77.91L55.2,15v3.12A1.34,1.34,0,0,0,56,19.36a28.45,28.45,0,0,1,15.71,16.1A6,6,0,0,0,70.77,38.69ZM81.91,46.1V38.53c0-.2,0-.41,0-.62a10,10,0,0,1-2.59,19l-.15-.36A21.26,21.26,0,0,0,81.91,46.1Z"/></g></g></svg>