<?xml version="1.0" encoding="iso-8859-1"?>
<!-- Generator: Adobe Illustrator 19.0.0, SVG Export Plug-In . SVG Version: 6.00 Build 0)  -->
<svg version="1.1" id="Capa_1" xmlns="http://www.w3.org/2000/svg" xmlns:xlink="http://www.w3.org/1999/xlink" x="0px" y="0px"
	 viewBox="0 0 512.001 512.001" style="enable-background:new 0 0 512.001 512.001;" xml:space="preserve">
<g>
	<path style="fill:#3BCD92;" d="M502.001,442.001v60h-60C442.001,468.861,468.861,442.001,502.001,442.001z"/>
	<path style="fill:#3BCD92;" d="M502.001,262.001v60c-33.14,0-60-26.86-60-60H502.001z"/>
	<path style="fill:#3BCD92;" d="M466.191,154.431l35.81,48.15l-49.91,33.3C434.441,209.481,440.431,173.601,466.191,154.431z"/>
</g>
<path style="fill:#85E374;" d="M442.001,262.001h-29.05l39.14-26.12c-17.65-26.4-11.66-62.28,14.1-81.45l-71.61-96.29
	c-26.59,19.78-64.18,14.26-83.95-12.33l-0.49-0.67l-152.57,110.24l0.71,0.98c53.93-38.52,128.88-26.03,167.39,27.9
	c16.79,23.51,23.88,51.01,22.08,77.74h-91.6c0.78,0,1.57,0,2.36,0.02c66.26,1.28,118.94,56.03,117.66,122.29
	c-1.26,65.47-54.73,117.67-119.93,117.67v0.02h185.76c0-33.14,26.86-60,60-60v-120C468.861,322.001,442.001,295.141,442.001,262.001
	z"/>
<g>
	<path style="fill:#3BCD92;" d="M358.771,10.001l35.81,48.14c-26.59,19.78-64.18,14.26-83.95-12.33l-0.49-0.67L358.771,10.001z"/>
	<path style="fill:#3BCD92;" d="M258.511,262.021c-0.79-0.02-1.58-0.02-2.36-0.02c-65.2,0-118.67,52.21-119.93,117.67
		c-1.28,66.26,51.39,121.01,117.66,122.29c0.79,0.02,1.58,0.02,2.36,0.02c65.2,0,118.67-52.2,119.93-117.67
		C377.451,318.051,324.771,263.301,258.511,262.021z"/>
	<path style="fill:#3BCD92;" d="M325.671,184.261c-38.51-53.93-113.46-66.42-167.39-27.9c-35.1,25.06-52.65,65.55-50.01,105.64
		h147.88h91.6C349.551,235.271,342.461,207.771,325.671,184.261z"/>
</g>
<path style="fill:#85E374;" d="M253.881,501.961c-66.27-1.28-118.94-56.03-117.66-122.29c1.26-65.46,54.73-117.67,119.93-117.67
	h-147.88c-2.64-40.09,14.91-80.58,50.01-105.64l-0.71-0.98l-147.57,106.62h60c0,33.14-26.86,60-60,60v120c33.14,0,60,26.86,60,60
	h186.24v-0.02C255.461,501.981,254.671,501.981,253.881,501.961z"/>
<g>
	<path style="fill:#3BCD92;" d="M10.001,262.001h60c0,33.14-26.86,60-60,60V262.001z"/>
	<path style="fill:#3BCD92;" d="M70.001,502.001h-60v-60C43.141,442.001,70.001,468.861,70.001,502.001z"/>
</g>
<path d="M418.001,391.789c4.629-0.935,7.99-4.994,7.99-9.788c0-5.53-4.452-9.99-9.99-9.99c-5.53,0-9.99,4.452-9.99,9.99
	C406.011,388.359,411.807,393.039,418.001,391.789z"/>
<path d="M379.831,139.401c-5.53,0-9.99,4.455-9.99,9.99c0,5.604,4.562,10.08,10.16,9.986c5.5-0.092,9.82-4.55,9.82-9.986
	C389.821,143.861,385.366,139.401,379.831,139.401z"/>
<path d="M96.001,372.011c-5.53,0-9.99,4.452-9.99,9.99c0,5.535,4.454,9.987,9.99,9.987c5.535,0,9.99-4.452,9.99-9.987
	C105.991,376.471,101.539,372.011,96.001,372.011z"/>
<path d="M246.001,302.001v11.26c-16.781,4.304-30,19.642-30,38.74c0,19.1,13.22,34.436,30,38.74v38.578
	c-6.446-3.736-10-10.366-10-17.308c0-5.523-4.477-10-10-10s-10,4.477-10,10c0,19.04,13.14,34.425,30,38.743v11.247
	c0,5.523,4.477,10,10,10s10-4.477,10-10v-11.247c16.869-4.32,30-19.71,30-38.743c0-19.099-13.22-34.436-30-38.74V334.7
	c6.316,3.668,10,10.221,10,17.301c0,5.523,4.477,10,10,10s10-4.477,10-10c0-19.1-13.22-34.436-30-38.74v-11.26
	c0-5.523-4.477-10-10-10C250.478,292.001,246.001,296.478,246.001,302.001z M236.001,352.001c0-7.075,3.679-13.631,10-17.301v34.602
	C239.685,365.634,236.001,359.081,236.001,352.001z M276.001,412.01c0,6.95-3.56,13.576-10,17.308V394.71
	C272.318,398.377,276.001,404.93,276.001,412.01z"/>
<path d="M10.001,512.001h492c5.523,0,10-4.477,10-10v-240c0-5.523-4.477-10-10-10h-56.047l61.597-41.102
	c2.28-1.521,3.835-3.911,4.303-6.612c0.467-2.701-0.194-5.475-1.83-7.674C362.042-2.371,379.066,20.531,366.795,4.032
	c-3.264-4.388-9.448-5.34-13.88-2.137c-0.316,0.228-332.505,240.248-348.77,252c-2.673,1.931-4.144,5.017-4.144,8.106v240
	C0.001,507.524,4.478,512.001,10.001,512.001z M432.727,272.001c4.399,30.609,28.666,54.875,59.274,59.274v101.451
	c-30.609,4.399-54.875,28.666-59.274,59.274H325.511c36.486-23.073,59.799-62.803,60.659-107.497
	c0.912-47.196-23.316-88.89-60.602-112.503C336.282,272.001,422.023,272.001,432.727,272.001z M20.001,432.726V331.275
	c30.609-4.399,54.875-28.766,59.274-59.374h107.579c-36.611,23.168-59.775,63.059-60.631,107.577
	c-0.914,47.3,23.408,88.967,60.628,112.523H79.276C74.877,461.392,50.61,437.125,20.001,432.726z M20.001,271.901h38.994
	c-3.987,19.562-19.431,35.107-38.994,39.094V271.901z M191.612,217.531l20.641,27.757c-6.854,0.778-13.934-1.988-18.34-7.909
	C189.695,231.713,188.719,224.265,191.612,217.531z M258.318,272.019c60.781,1.174,109.03,51.309,107.855,112.1
	c-1.145,59.476-50.459,107.862-109.932,107.862c-0.699,0.002-1.402,0.001-2.167-0.018c-60.785-1.174-109.029-51.303-107.854-112.1
	c1.145-59.476,50.46-107.862,109.932-107.862c0.069,0,0.138,0,0.207,0C256.988,272.001,257.629,272.002,258.318,272.019z
	 M337.998,252.001h-95.825c-31.078-41.786-34.037-45.764-34.518-46.411c7.239-0.831,14.12,2.222,18.348,7.914
	c3.293,4.434,9.557,5.358,13.991,2.064c4.433-3.293,5.357-9.557,2.064-13.991c-11.201-15.078-30.841-19.881-47.192-13.187
	l-6.721-9.039c-3.296-4.431-9.561-5.35-13.992-2.055c-4.431,3.296-5.351,9.561-2.055,13.992l6.722,9.039
	c-10.926,13.505-12.341,33.691-0.951,48.992c0.698,0.938,1.44,1.822,2.202,2.68h-62.036c0.596-34.819,17.377-67.025,46.058-87.503
	c23.91-17.077,53.039-23.823,82.021-18.992c28.983,4.831,54.346,20.658,71.419,44.566
	C330.473,208.191,337.59,229.882,337.998,252.001z M98.034,252.001H40.917l67.252-48.592
	C101.771,218.585,98.276,235.032,98.034,252.001z M20.001,453.007c19.563,3.987,35.007,19.431,38.994,38.994H20.001V453.007z
	 M453.008,492.001c3.987-19.563,19.431-35.007,38.994-38.994v38.994H453.008z M492.001,310.995
	c-19.563-3.987-35.007-19.431-38.994-38.994h38.994V310.995z M455.689,221.461c-7.236-17.653-3.709-38.011,9.047-52.231
	l22.961,30.873L455.689,221.461z M438.817,232.72l-28.895,19.281h-51.923c-0.412-26.27-8.829-52.043-24.189-73.551
	c-20.177-28.257-50.154-46.962-84.407-52.671c-10.667-1.778-21.351-2.228-31.86-1.396l90.936-65.705
	c10.683,11.085,24.634,18.307,40.118,20.581c15.16,2.226,30.286-0.494,43.509-7.69l60.519,81.375
	C431.54,173.864,425.991,205.963,438.817,232.72z M356.634,23.883l23.36,31.403c-8.807,4.15-18.638,5.632-28.492,4.185
	c-10.085-1.481-19.261-5.9-26.587-12.67L356.634,23.883z"/>
<g>
</g>
<g>
</g>
<g>
</g>
<g>
</g>
<g>
</g>
<g>
</g>
<g>
</g>
<g>
</g>
<g>
</g>
<g>
</g>
<g>
</g>
<g>
</g>
<g>
</g>
<g>
</g>
<g>
</g>
</svg>
