<?xml version="1.0" encoding="utf-8"?>
<!-- Generator: Adobe Illustrator 22.1.0, SVG Export Plug-In . SVG Version: 6.00 Build 0)  -->
<svg version="1.1" id="Capa_1" xmlns="http://www.w3.org/2000/svg" xmlns:xlink="http://www.w3.org/1999/xlink" x="0px" y="0px"
	 viewBox="0 0 512 512" style="enable-background:new 0 0 512 512;" xml:space="preserve">
<style type="text/css">
	.st0{opacity:0.1;}
</style>
<g class="st0">
	<g>
		<path d="M244.1,306l-15-7.5c-3.5-1.7-7.7-0.3-9.4,3.1c-1.7,3.5-0.3,7.7,3.1,9.4l15,7.5c1,0.5,2.1,0.7,3.1,0.7
			c2.6,0,5.1-1.4,6.3-3.9C249,312,247.6,307.8,244.1,306z"/>
	</g>
</g>
<g class="st0">
	<g>
		<path d="M292.3,301.7c-1.7-3.5-6-4.9-9.4-3.1l-15,7.5c-3.5,1.7-4.9,6-3.1,9.4c1.2,2.5,3.7,3.9,6.3,3.9c1.1,0,2.1-0.2,3.1-0.7
			l15-7.5C292.6,309.3,294,305.1,292.3,301.7z"/>
	</g>
</g>
<g class="st0">
	<g>
		<path d="M331.1,342.8H180.9c-3.9,0-7,3.1-7,7c0,41.1,36.8,74.6,82.1,74.6s82.1-33.5,82.1-74.6C338.1,346,335,342.8,331.1,342.8z
			 M263,410.1v-7.7c0-3.9-3.1-7-7-7c-3.9,0-7,3.1-7,7v7.7c-10-0.9-19.4-3.8-27.7-8.2c6.1-13.6,19.6-22.5,34.7-22.5
			c15.2,0,28.7,8.9,34.7,22.5C282.4,406.3,273.1,409.1,263,410.1z M302.5,394c-8.7-17.4-26.6-28.6-46.5-28.6
			c-19.9,0-37.8,11.3-46.5,28.6c-11.4-9.5-19.2-22.5-21.1-37.1h135.2C321.7,371.4,313.9,384.4,302.5,394z"/>
	</g>
</g>
<g class="st0">
	<g>
		<path d="M442.1,287.9c30.9-6.3,53.7-33.7,53.7-65.7c0-31.7-22.5-59.3-53.5-65.7c-0.7-0.7-1.5-1.5-2.3-2.1
			c-6.8-5.6-15.8-7.9-24.6-6.2c-2.7,0.5-5.2,1.4-7.6,2.6c-16.2-38.4-46.5-69.4-84.7-86.5V42c0-2.3-1.2-4.5-3.1-5.8
			c-1.9-1.3-4.4-1.6-6.5-0.7l-30.1,12l-5.6-22.2c-0.5-1.9-1.7-3.5-3.4-4.5c-1.7-0.9-3.7-1.1-5.6-0.5c-17.4,5.8-34.5,17.3-50.8,34.2
			c-26,6.2-50.4,18.7-70.5,36.4c-18.7,16.4-33.6,37-43.2,59.8c-2.4-1.2-4.9-2.1-7.6-2.6c-8.8-1.7-17.8,0.6-24.6,6.2
			c-0.8,0.7-1.6,1.4-2.3,2.1c-31,6.4-53.5,34-53.5,65.7c0,32,22.8,59.5,53.7,65.7c-19.5,50.2-42.3,120.2-53.6,196
			c-0.6,3.8,2.1,7.4,5.9,8c0.4,0.1,0.7,0.1,1.1,0.1c3.4,0,6.4-2.5,6.9-6c11.7-77.7,35.6-149.4,55.2-199.2c2.7,3.4,5.6,6.6,8.7,9.7
			l9.6,9.6c10.3,10.3,23.6,16.7,38,18.4c-6.4,18.9-23.2,74.2-35.4,159.4c-0.5,3.8,2.1,7.4,6,7.9c0.3,0,0.7,0.1,1,0.1
			c3.4,0,6.4-2.5,6.9-6c2.1-14.9,4.4-28.8,6.7-41.8c35.6,26.1,80.9,40.3,128.9,40.3c48,0,93.3-14.3,128.9-40.3
			c2.3,13,4.6,26.9,6.7,41.8c0.5,3.5,3.5,6,6.9,6c0.3,0,0.7,0,1-0.1c3.8-0.5,6.5-4.1,6-7.9c-12.2-85.2-29-140.5-35.4-159.4
			c13.8-1.6,26.6-7.5,36.7-17.1c2.8-2.7,2.9-7.1,0.3-9.9c-2.7-2.8-7.1-2.9-9.9-0.3c-19.7,18.6-51.2,18.2-70.4-1l-33.7-33.7
			c-10.9-10.9-16.5-26.1-15.3-41.7c1.2-15.5,9.1-29.6,21.7-38.8c20.8-15.2,50.8-12.3,69.9,6.8l24.1,24.1c2,2,5,2.6,7.7,1.5
			c2.6-1.1,4.3-3.6,4.3-6.5v-30c0-7.8,5.3-14.7,12.4-16c4.8-0.9,9.4,0.2,13,3.2c3.6,3,5.6,7.3,5.6,12v40.1c0,21.3-7.1,42.4-20,59.3
			c-2.3,3.1-1.7,7.5,1.3,9.8c2.5,1.9,6,1.9,8.4,0.1c19.7,49.8,43.7,121.6,55.4,199.5c0.5,3.5,3.5,6,6.9,6c0.3,0,0.7,0,1.1-0.1
			c3.8-0.6,6.5-4.2,5.9-8C484.3,408.1,461.5,338.1,442.1,287.9z M75.2,274.6c-25.7-3.9-44.9-26.3-44.9-52.4
			c0-21.1,12.6-39.9,31.2-48.3c-0.1,1.1-0.2,2.2-0.2,3.3v40.1c0,19.8,5.1,38.8,14.7,55.5C75.7,273.4,75.5,274,75.2,274.6z
			 M113.7,296.3l-9.6-9.6c-18.5-18.5-28.7-43.2-28.7-69.4v-40.1c0-4.6,2.1-9,5.6-12c2.8-2.3,6.2-3.5,9.8-3.5c1,0,2.1,0.1,3.2,0.3
			c7,1.4,12.4,8.3,12.4,16v30c0,2.8,1.7,5.4,4.3,6.5c2.6,1.1,5.6,0.5,7.7-1.5l24.1-24.1c19-19,49.1-22,69.9-6.8
			c12.6,9.2,20.5,23.4,21.7,38.8c1.2,15.5-4.4,30.7-15.3,41.7l-33.7,33.7c-9.5,9.5-22.2,14.7-35.7,14.7
			C135.9,311,123.2,305.7,113.7,296.3z M371.8,381.8c3.3,13.5,6.8,29.2,10.3,46.9c-33.9,26.9-78.6,41.7-126.1,41.7
			c-47.5,0-92.1-14.8-126.1-41.7c3.5-18.1,7.1-33.8,10.3-46.9c13.4,41.8,60.2,72.7,115.8,72.7C311.6,454.5,358.4,423.6,371.8,381.8z
			 M283.3,272.5l33.7,33.7c10,10,22.9,16.3,36.8,18.2c0.6,2.1,1.3,4.3,2.2,6.3c3.7,8.6,5.6,17.5,5.6,26.6
			c0,45.8-47.4,83.1-105.6,83.1s-105.6-37.3-105.6-83.1c0-9.1,1.9-18.1,5.6-26.6c0.9-2,1.6-4.2,2.2-6.3c13.9-1.9,26.7-8.2,36.8-18.2
			l33.7-33.7c13.8-13.8,20.9-33,19.4-52.7c-0.4-5-1.3-9.8-2.8-14.5c3.4,1.4,7.1,2,10.7,2c3.6,0,7.3-0.7,10.7-2
			c-1.4,4.7-2.4,9.5-2.8,14.5C262.4,239.5,269.5,258.7,283.3,272.5z M391.6,178v13.1L379.5,179c-23.9-23.9-61.8-27.4-88.1-8.2
			c-2.9,2.1-5.6,4.5-8.2,7c-0.1,0.1-0.3,0.1-0.4,0.2c-6.1,3.1-11.8,7-16.9,11.6c-5.5,5.1-14.2,5.1-19.8,0
			c-5.2-4.8-11.1-8.7-17.4-11.8c-2.5-2.5-5.2-4.9-8.1-7c-26.3-19.2-64.2-15.7-88.1,8.2l-12.1,12.1V178c0-6.3-1.9-12.2-5.1-17.1
			c8.7-22.7,23-43.2,41.4-59.3c19-16.6,41.9-28.3,66.4-33.8c1.4-0.3,2.6-1,3.6-2c12.9-13.6,26.1-23.5,39.4-29.3l5.6,22.3
			c0.5,2,1.8,3.6,3.6,4.5c1.8,0.9,3.9,1,5.8,0.3L309,52.4V69c0,2.8,1.7,5.4,4.3,6.5c38.4,15.8,68.5,46.8,83.3,85.4
			C393.5,165.8,391.6,171.7,391.6,178z M436,272.7c9.5-16.8,14.7-36,14.7-55.4v-40.1c0-1.1-0.1-2.2-0.2-3.3
			c18.6,8.4,31.2,27.2,31.2,48.3c0,26.1-19.2,48.5-44.9,52.4C436.5,274,436.3,273.4,436,272.7z"/>
	</g>
</g>
</svg>
