<?xml version="1.0" encoding="iso-8859-1"?>
<!-- Generator: Adobe Illustrator 19.0.0, SVG Export Plug-In . SVG Version: 6.00 Build 0)  -->
<svg version="1.1" id="Capa_1" xmlns="http://www.w3.org/2000/svg" xmlns:xlink="http://www.w3.org/1999/xlink" x="0px" y="0px"
	 viewBox="0 0 512 512" style="enable-background:new 0 0 512 512;" xml:space="preserve">
<path style="fill:#65AAFC;" d="M123.972,216.404c-0.59-35.322,27.865-64.139,63.052-64.139c0.479,0,0.951,0.026,1.427,0.036
	c5.1-31.422,23.696-58.302,49.631-74.543c-16.684-10.454-36.411-16.501-57.552-16.501c-53.992,0-98.758,39.42-107.139,91.044
	c-0.476-0.01-0.948-0.036-1.427-0.036c-35.186,0-63.642,28.818-63.052,64.139c0.577,34.577,29.509,61.983,64.089,61.983h115.059
	C153.48,278.387,124.55,250.98,123.972,216.404z"/>
<path style="fill:#2E84FF;" d="M180.531,61.256c-53.991,0-98.758,39.42-107.139,91.044c-0.476-0.01-0.948-0.036-1.427-0.036
	c-35.186,0-63.642,28.818-63.052,64.139c0.577,34.577,29.509,61.983,64.089,61.983h19.856c-34.582,0-63.513-27.407-64.09-61.983
	c-0.574-34.375,26.365-62.58,60.242-64.067l-0.004-0.008c0,0,4.107-0.157,4.993-4.144c0.006-0.024,0.013-0.042,0.019-0.065
	c9.411-46.366,48.348-82.01,96.344-86.405C187.123,61.422,183.847,61.256,180.531,61.256z"/>
<path style="fill:#AAE8FF;" d="M423.132,102.976c-11.601-0.686-22.739,0.904-33.033,4.339c-3.242,1.082-6.779-0.15-8.84-2.876
	c-19.818-26.229-51.263-43.181-86.67-43.181c-53.992,0-98.758,39.42-107.139,91.044c-0.476-0.01-0.948-0.036-1.427-0.036
	c-35.186,0-63.642,28.818-63.052,64.139c0.577,34.577,29.509,61.983,64.09,61.983h230.784c49.767,0,89.86-41.412,87.7-91.656
	C503.625,142.068,467.758,105.614,423.132,102.976z"/>
<path style="fill:#6BD9FC;" d="M294.589,61.256c-53.991,0-98.758,39.42-107.139,91.044c-0.476-0.01-0.948-0.036-1.427-0.036
	c-35.186,0-63.642,28.818-63.052,64.139c0.577,34.577,29.509,61.983,64.089,61.983h19.856c-34.582,0-63.513-27.407-64.09-61.983
	c-0.574-34.375,26.365-62.58,60.242-64.067l-0.004-0.008c0,0,4.107-0.157,4.993-4.144c0.006-0.024,0.013-0.042,0.019-0.065
	c9.411-46.366,48.348-82.01,96.344-86.405C301.18,61.422,297.904,61.256,294.589,61.256z"/>
<path style="fill:#FFBE26;" d="M294.241,228.021v78.094c0,1.951,1.581,3.532,3.532,3.532h33.358
	c16.047,0,26.677,16.65,19.923,31.206L300.978,448.78c-1.592,3.433-6.737,2.298-6.737-1.487v-78.094
	c0-1.951-1.581-3.532-3.532-3.532h-34.707c-15.418,0-25.631-15.997-19.141-29.983l50.644-109.151
	C289.096,223.101,294.241,224.237,294.241,228.021z"/>
<g>
	<path style="fill:#F99A25;" d="M256.662,335.684l37.579-80.994v-26.67c0-3.784-5.145-4.919-6.737-1.487L236.86,335.684
		c-6.489,13.986,3.724,29.983,19.141,29.983h19.802C260.386,365.667,250.172,349.67,256.662,335.684z"/>
	<path style="fill:#F99A25;" d="M314.043,369.2c0-1.951-1.581-3.533-3.532-3.533h-19.802c1.951,0,3.532,1.581,3.532,3.533v78.094
		c0,3.785,5.145,4.919,6.737,1.487l13.064-28.157V369.2H314.043z"/>
</g>
<path d="M504.157,206.522c-3.998-1.096-8.133,1.258-9.229,5.26c-9.517,34.744-41.357,59.009-77.429,59.009H301.408
	c0-46.664,0.137-43.698-0.363-45.609c-1.774-6.787-9.355-10.108-15.59-7.076c-4.596,2.235-3.226,1.203-27.112,52.684
	c-77.909,0-73.414,0.107-77.315-0.282c-46.619-4.65-67.947-60.673-34.958-94.215c11.438-11.631,26.833-17.044,40.258-16.586
	c1.837,0.055,3.409-0.146,5.129-1.369c4.149-2.955,2.136-5.24,6.333-18.737c7.135-22.846,22.281-42.629,42.935-55.562
	c0.233-0.146,0.452-0.309,0.664-0.478c10.8-6.62,22.952-11.28,35.983-13.47c4.091-0.688,6.85-4.562,6.162-8.653
	c-0.688-4.09-4.553-6.848-8.653-6.162c-13.722,2.307-26.592,7.002-38.2,13.623c-17.467-9.977-37.242-15.237-57.495-15.237
	c-27.725,0-54.562,9.935-75.568,27.977C84.445,98.1,71.175,120.352,65.811,144.827c-17.254,1.15-33.267,8.48-45.511,20.931
	c-44.102,44.847-11.512,120.054,51.358,120.054c7.165,0,164.325,0,179.716,0l-21.672,46.709c-4.132,8.907-3.444,19.164,1.838,27.439
	c5.283,8.276,14.299,13.216,24.118,13.216h30.729v74.115c0,5.225,3.563,9.66,8.664,10.785c0.813,0.179,1.623,0.265,2.425,0.265
	c4.226,0,8.124-2.419,9.973-6.403l50.076-107.927c4.256-9.174,3.549-19.741-1.894-28.265c-5.442-8.525-14.729-13.615-24.844-13.615
	h-29.379V285.81h116.091c42.819,0,80.616-28.811,91.917-70.063C510.513,211.75,508.158,207.618,504.157,206.522z M71.658,270.791
	c-49.844,0-75.255-59.306-40.647-94.498c10.529-10.705,24.595-16.601,39.608-16.601c0.219,0,0.436,0.009,0.651,0.016l0.605,0.018
	c0.058,0.001,0.115,0.002,0.172,0.002c3.674,0,6.821-2.665,7.412-6.308c7.971-49.1,49.911-84.737,99.725-84.737
	c15.082,0,29.858,3.344,43.33,9.744c-21.23,16.678-35.937,40.219-41.648,66.402c-63.359,4.226-90.368,85.659-38.132,125.962H71.658
	V270.791z M330.787,317.159c5.033,0,9.473,2.433,12.181,6.675c2.707,4.241,3.046,9.293,0.927,13.858l-42.488,91.572V369.2
	c0-6.09-4.955-11.045-11.045-11.045h-34.706c-4.733,0-8.909-2.288-11.455-6.278c-2.547-3.989-2.864-8.739-0.872-13.033
	l43.055-92.798c0,7.138,0,53.157,0,60.066c0,6.09,4.954,11.044,11.044,11.044h33.358V317.159z"/>
<path d="M511.932,177.706c-6.09-45.017-43.395-79.635-88.701-82.313c-12.248-0.724-24.312,0.86-35.853,4.711
	c-0.071,0.021-0.3-0.054-0.47-0.279c-18.276-24.188-44.756-40.082-74.564-44.753c-4.109-0.645-7.943,2.16-8.583,6.259
	c-0.643,4.098,2.159,7.941,6.257,8.584c25.938,4.065,48.988,17.903,64.904,38.966c4.047,5.358,10.963,7.557,17.21,5.475
	c9.718-3.242,19.882-4.576,30.214-3.966c38.154,2.255,69.57,31.414,74.7,69.331c0.511,3.77,3.734,6.506,7.434,6.506
	c0.336,0,0.676-0.022,1.018-0.069C509.605,185.6,512.487,181.816,511.932,177.706z"/>
<g>
</g>
<g>
</g>
<g>
</g>
<g>
</g>
<g>
</g>
<g>
</g>
<g>
</g>
<g>
</g>
<g>
</g>
<g>
</g>
<g>
</g>
<g>
</g>
<g>
</g>
<g>
</g>
<g>
</g>
</svg>
