<?xml version="1.0" encoding="utf-8"?>
<!-- Generator: Adobe Illustrator 22.1.0, SVG Export Plug-In . SVG Version: 6.00 Build 0)  -->
<svg version="1.1" id="Capa_1" xmlns="http://www.w3.org/2000/svg" xmlns:xlink="http://www.w3.org/1999/xlink" x="0px" y="0px"
	 viewBox="0 0 597 929.4" style="enable-background:new 0 0 597 929.4;" xml:space="preserve">
<style type="text/css">
	.st0{opacity:0.1;enable-background:new    ;}
</style>
<path class="st0" d="M445.3,541.8c46.4-30.1,82.4-73.6,103.6-125.9c27.3-67.4,26.7-141.4-1.6-208.4c-28.4-67-81.1-118.9-148.5-146.2
	s-141.4-26.7-208.4,1.6S71.5,144,44.2,211.4c-20.9,51.7-25.5,107.2-13.7,160.5l-1.6,1.6c6.4,21.6,12.3,43.4,22.5,63.5l1.6-1.6
	c22.9,45.9,57.7,83.8,101,110.3c0.9,0.2,1.7,0.6,2.5,1.5c1,0.6,2,1.2,3,1.8l-0.9,0.9c7.7,10.9,10.6,24.6,11.5,37.8
	c0.9,13,0,26.1-1.8,38.9l1-1.1L169,889.2l138-67.5l138,67.8L445.3,541.8z M216.9,510.1c-4.7-1.9-9.4-4-14-6.2
	c-11.9-5.8-23.1-12.7-33.6-20.5c-29.8-22.2-53.2-52-68.1-87.1c-1.1-2.5-2.1-5.1-3.1-7.7c-8.9-23.5-13.5-48-13.8-72.5
	c-0.3-27.8,4.9-55.6,15.6-82.1c21.3-52.5,61.7-93.5,113.8-115.6s109.8-22.5,162.3-1.3c52.5,21.3,93.5,61.7,115.6,113.8
	s22.5,109.8,1.3,162.3c-11,27.3-27.3,51.4-47.6,71.4c-17.3,17.1-37.7,31.2-60.3,41.6c-2,0.9-3.9,1.8-5.9,2.6
	c-35.7,15.1-74.1,20.1-111.5,14.9c-12.8-1.8-25.5-4.8-38-8.9C225.4,513.4,221.1,511.8,216.9,510.1z M307.1,754.5l-77.8,38l0.2-215
	c51.3,13.1,105,11,155.4-6.4l-0.2,221.6L307.1,754.5z"/>
</svg>
