<svg viewBox="-34 1 511 511.99998" xmlns="http://www.w3.org/2000/svg"><path d="m364.191406 371.710938c-31.273437 8.378906-63.417968-10.175782-71.796875-41.449219l-56.457031-210.710938 113.242188-30.34375 56.460937 210.710938c8.378906 31.273437-10.179687 63.414062-41.449219 71.792969zm0 0" fill="#ffb954"/><path d="m372.988281 178.0625-23.808593-88.855469-113.242188 30.34375 23.46875 87.585938zm0 0" fill="#fff"/><path d="m80.449219 332.882812c31.273437 8.378907 63.414062-10.175781 71.792969-41.449218l56.460937-210.710938-113.242187-30.34375-56.460938 210.710938c-8.378906 31.273437 10.179688 63.414062 41.449219 71.792968zm0 0" fill="#ffc66c"/><path d="m71.652344 139.234375 23.808594-88.855469 113.242187 30.34375-23.46875 87.585938zm0 0" fill="#fff"/><path d="m366.777344 381.371094c17.707031-4.742188 32.503906-16.097656 41.667968-31.972656 9.164063-15.871094 11.597657-34.363282 6.851563-52.066407l-56.457031-210.710937c-.6875-2.5625-2.363282-4.746094-4.660156-6.074219-2.296876-1.324219-5.023438-1.683594-7.585938-1l-113.246094 30.34375c-2.5625.6875-4.746094 2.363281-6.070312 4.660156-1.328125 2.296875-1.6875 5.027344-1 7.585938l56.460937 210.714843c4.742188 17.703126 16.097657 32.5 31.972657 41.664063 10.570312 6.105469 22.304687 9.222656 34.195312 9.222656 5.960938 0 11.960938-.785156 17.871094-2.367187zm-24.667969-279.917969 18.292969 68.269531-93.925782 25.167969-18.292968-68.269531zm-40.054687 226.222656-30.402344-113.46875 93.925781-25.167969 30.402344 113.46875c3.359375 12.542969 1.636719 25.644532-4.855469 36.894532-6.492188 11.246094-16.980469 19.292968-29.523438 22.652344-12.546874 3.359374-25.644531 1.636718-36.894531-4.855469-11.246093-6.496094-19.289062-16.980469-22.652343-29.523438zm0 0"/><path d="m365.921875 397.476562c-1.859375 1.863282-2.929687 4.441407-2.929687 7.070313s1.070312 5.210937 2.929687 7.070313c1.859375 1.871093 4.429687 2.929687 7.070313 2.929687 2.628906 0 5.207031-1.058594 7.070312-2.929687 1.859375-1.859376 2.929688-4.441407 2.929688-7.070313s-1.070313-5.207031-2.929688-7.070313c-1.863281-1.859374-4.441406-2.929687-7.070312-2.929687-2.640626 0-5.210938 1.070313-7.070313 2.929687zm0 0"/><path d="m443.796875 479.179688c-1.429687-5.332032-6.910156-8.5-12.246094-7.070313l-28.089843 7.527344-11.316407-42.230469c-1.429687-5.332031-6.914062-8.5-12.246093-7.070312-5.335938 1.429687-8.5 6.914062-7.074219 12.246093l11.316406 42.230469-28.089844 7.527344c-5.332031 1.429687-8.5 6.910156-7.070312 12.246094 1.199219 4.46875 5.238281 7.414062 9.652343 7.414062.855469 0 1.730469-.109375 2.597657-.34375l75.492187-20.226562c5.335938-1.429688 8.503906-6.914063 7.074219-12.25zm0 0"/><path d="m355.582031 266.546875c0-2.640625-1.070312-5.210937-2.929687-7.070313-1.859375-1.871093-4.441406-2.929687-7.070313-2.929687-2.628906 0-5.210937 1.058594-7.070312 2.929687-1.859375 1.859376-2.929688 4.429688-2.929688 7.070313 0 2.628906 1.070313 5.207031 2.929688 7.066406 1.859375 1.863281 4.441406 2.929688 7.070312 2.929688 2.628907 0 5.210938-1.066407 7.070313-2.929688 1.859375-1.859375 2.929687-4.4375 2.929687-7.066406zm0 0"/><path d="m330.433594 320.339844c-2.628906 0-5.210938 1.070312-7.070313 2.929687-1.859375 1.863281-2.929687 4.429688-2.929687 7.070313 0 2.632812 1.070312 5.210937 2.929687 7.070312s4.441407 2.929688 7.070313 2.929688c2.640625 0 5.210937-1.070313 7.070312-2.929688 1.867188-1.859375 2.929688-4.4375 2.929688-7.070312 0-2.640625-1.0625-5.207032-2.929688-7.070313-1.859375-1.855469-4.429687-2.929687-7.070312-2.929687zm0 0"/><path d="m366.570312 308.851562c2.632813 0 5.199219-1.070312 7.070313-2.929687 1.859375-1.867187 2.929687-4.4375 2.929687-7.066406 0-2.640625-1.070312-5.210938-2.929687-7.082031-1.859375-1.859376-4.4375-2.917969-7.070313-2.917969-2.640624 0-5.207031 1.058593-7.078124 2.917969-1.859376 1.859374-2.929688 4.441406-2.929688 7.082031 0 2.628906 1.070312 5.207031 2.929688 7.066406 1.871093 1.859375 4.4375 2.929687 7.078124 2.929687zm0 0"/><path d="m300.765625 223.746094c-2.628906 0-5.210937 1.070312-7.070313 2.929687-1.859374 1.863281-2.929687 4.441407-2.929687 7.070313 0 2.632812 1.070313 5.210937 2.929687 7.070312 1.859376 1.859375 4.441407 2.929688 7.070313 2.929688s5.210937-1.070313 7.070313-2.929688c1.859374-1.859375 2.929687-4.4375 2.929687-7.070312 0-2.628906-1.070313-5.207032-2.929687-7.070313-1.859376-1.859375-4.441407-2.929687-7.070313-2.929687zm0 0"/><path d="m306.273438 153.292969c1.859374 1.859375 4.441406 2.929687 7.070312 2.929687s5.210938-1.070312 7.070312-2.929687c1.859376-1.859375 2.929688-4.441407 2.929688-7.070313s-1.070312-5.210937-2.929688-7.070312c-1.859374-1.859375-4.441406-2.929688-7.070312-2.929688s-5.210938 1.070313-7.070312 2.929688c-1.859376 1.859375-2.929688 4.441406-2.929688 7.070312s1.070312 5.207032 2.929688 7.070313zm0 0"/><path d="m211.292969 72.023438-113.246094-30.339844c-2.5625-.6875-5.289063-.328125-7.585937.996094-2.296876 1.328124-3.972657 3.511718-4.660157 6.074218l-56.457031 210.710938c-4.746094 17.703125-2.3125 36.195312 6.851562 52.066406 7.476563 12.949219 18.703126 22.886719 32.195313 28.6875l-27.210937 101.550781-28.089844-7.527343c-5.332032-1.429688-10.816406 1.738281-12.246094 7.070312-1.429688 5.335938 1.734375 10.820312 7.070312 12.25l75.496094 20.226562c.867188.234376 1.738282.34375 2.59375.34375 4.414063 0 8.457032-2.945312 9.652344-7.414062 1.429688-5.332031-1.734375-10.816406-7.070312-12.246094l-28.089844-7.527344 27.210937-101.554687c2.675781.316406 5.355469.480469 8.027344.480469 11.886719 0 23.625-3.117188 34.195313-9.222656 15.875-9.164063 27.226562-23.960938 31.972656-41.664063l32.988281-123.121094s.003906-.003906.003906-.003906v-.003906l23.46875-87.582031c1.429688-5.335938-1.738281-10.820313-7.070312-12.25zm-68.707031 217.785156c-3.359376 12.542968-11.40625 23.027344-22.652344 29.519531-11.25 6.496094-24.351563 8.21875-36.894532 4.859375-12.542968-3.363281-23.027343-11.40625-29.523437-22.652344-6.492187-11.246094-8.21875-24.351562-4.855469-36.894531l30.402344-113.46875 93.925781 25.167969zm35.578124-132.785156-93.925781-25.167969 18.292969-68.269531 93.925781 25.167968zm0 0"/><path d="m109.054688 228.675781c0-2.628906-1.058594-5.210937-2.929688-7.070312-1.859375-1.859375-4.4375-2.929688-7.070312-2.929688-2.628907 0-5.207032 1.070313-7.066407 2.929688-1.863281 1.859375-2.933593 4.429687-2.933593 7.070312 0 2.628907 1.070312 5.210938 2.933593 7.070313 1.859375 1.859375 4.4375 2.929687 7.066407 2.929687 2.632812 0 5.210937-1.070312 7.070312-2.929687s2.929688-4.441406 2.929688-7.070313zm0 0"/><path d="m114.207031 282.472656c-2.640625 0-5.210937 1.070313-7.070312 2.933594-1.859375 1.859375-2.929688 4.4375-2.929688 7.066406 0 2.632813 1.070313 5.210938 2.929688 7.070313s4.4375 2.929687 7.070312 2.929687c2.628907 0 5.207031-1.070312 7.066407-2.929687 1.859374-1.859375 2.929687-4.4375 2.929687-7.070313 0-2.628906-1.070313-5.207031-2.929687-7.066406-1.859376-1.863281-4.4375-2.933594-7.066407-2.933594zm0 0"/><path d="m78.078125 250.984375c-2.640625 0-5.210937 1.0625-7.070313 2.933594-1.859374 1.859375-2.929687 4.429687-2.929687 7.066406 0 2.632813 1.070313 5.210937 2.929687 7.070313 1.859376 1.859374 4.429688 2.929687 7.070313 2.929687 2.628906 0 5.207031-1.070313 7.070313-2.929687 1.859374-1.859376 2.929687-4.4375 2.929687-7.070313 0-2.636719-1.070313-5.207031-2.929687-7.066406-1.863282-1.871094-4.441407-2.933594-7.070313-2.933594zm0 0"/><path d="m150.953125 188.808594c-1.871094-1.859375-4.441406-2.929688-7.078125-2.929688-2.632812 0-5.199219 1.070313-7.070312 2.929688-1.859376 1.859375-2.929688 4.441406-2.929688 7.070312s1.070312 5.210938 2.929688 7.070313c1.859374 1.859375 4.4375 2.929687 7.070312 2.929687 2.636719 0 5.207031-1.070312 7.078125-2.929687 1.859375-1.859375 2.921875-4.441407 2.921875-7.070313s-1.0625-5.210937-2.921875-7.070312zm0 0"/><path d="m131.292969 118.351562c2.640625 0 5.210937-1.070312 7.070312-2.929687 1.871094-1.859375 2.929688-4.4375 2.929688-7.070313 0-2.628906-1.058594-5.207031-2.929688-7.066406-1.859375-1.863281-4.429687-2.929687-7.070312-2.929687-2.628907 0-5.207031 1.066406-7.066407 2.929687-1.863281 1.859375-2.933593 4.4375-2.933593 7.066406 0 2.632813 1.070312 5.210938 2.933593 7.070313 1.859376 1.863281 4.4375 2.929687 7.066407 2.929687zm0 0"/><path d="m237.179688 44.496094c5.523437 0 10-4.476563 10-10v-24.496094c0-5.523438-4.476563-10-10-10-5.523438 0-10 4.476562-10 10v24.496094c0 5.523437 4.476562 10 10 10zm0 0"/><path d="m191.839844 51.625c1.949218 1.949219 4.507812 2.925781 7.066406 2.925781s5.121094-.980469 7.074219-2.933593c3.902343-3.90625 3.898437-10.238282-.007813-14.140626l-14.367187-14.355468c-3.90625-3.902344-10.238281-3.898438-14.140625.003906-3.902344 3.910156-3.898438 10.238281.007812 14.144531zm0 0"/><path d="m274.558594 55.496094c2.558594 0 5.121094-.976563 7.074218-2.929688l15.273438-15.289062c3.902344-3.90625 3.902344-10.238282-.003906-14.140625-3.90625-3.902344-10.238282-3.902344-14.140625.003906l-15.277344 15.289063c-3.90625 3.90625-3.902344 10.238281.003906 14.140624 1.953125 1.949219 4.511719 2.925782 7.070313 2.925782zm0 0"/></svg>